<?xml version="1.0" encoding="UTF-8" ?>
<!DOCTYPE svg PUBLIC "-//W3C//DTD SVG 1.1//EN" "http://www.w3.org/Graphics/SVG/1.1/DTD/svg11.dtd">
<svg width="100pt" height="100pt" viewBox="0 0 100 100" version="1.1" xmlns="http://www.w3.org/2000/svg">
<circle cx="50" cy="50" r="49" fill="#c87c33" />
<path fill="#ffffff" d=" M 38.09 36.38 C 40.19 36.34 42.28 36.27 44.38 36.18 C 44.50 43.73 44.57 51.30 44.37 58.84 C 41.83 64.16 33.71 65.15 29.79 60.82 C 30.55 59.24 31.53 57.72 33.08 56.80 C 34.64 56.81 37.48 58.57 37.90 56.02 C 38.21 49.48 37.81 42.93 38.09 36.38 Z" />
<path fill="#ffffff" d=" M 50.53 40.75 C 52.54 38.09 55.42 35.46 59.00 35.68 C 62.18 35.77 65.95 36.33 67.92 39.14 C 67.99 41.16 66.44 42.59 65.09 43.85 C 62.66 42.73 59.77 40.33 57.09 42.05 C 57.06 42.51 57.00 43.42 56.97 43.88 C 59.92 46.78 64.45 47.53 67.07 50.85 C 69.51 53.53 69.04 57.98 66.52 60.45 C 62.29 64.92 54.50 64.27 50.19 60.22 C 50.71 58.35 51.54 56.59 52.96 55.22 C 55.33 56.25 57.67 58.54 60.44 57.48 C 62.15 56.42 61.46 53.93 59.77 53.27 C 56.34 51.36 52.34 49.65 50.46 45.98 C 50.24 44.24 50.46 42.49 50.53 40.75 Z" />
</svg>
