<svg xmlns="http://www.w3.org/2000/svg" width="100" height="100" viewBox="0 0 100 100">
    <circle fill="#0769ad" cx="50" cy="50" r="50"/>
    <path fill="#fff" d="M43.773 33.855v21.463c0 2.564-.179 4.476-.537 5.736-.358 1.432-.967 2.643-1.826 3.631-1.676 1.962-3.896 2.943-6.66 2.943-2.091 0-4.046-.544-5.865-1.633l2.449-4.275c1.217.816 2.356 1.225 3.416 1.225 1.49 0 2.521-.566 3.094-1.697.602-1.132.902-3.108.902-5.93V33.855h5.027zm25.155 4.941l-4.061 2.406c-.759-1.318-1.482-2.177-2.17-2.578-.716-.458-1.64-.687-2.771-.687-1.389 0-2.542.394-3.459 1.182-.917.773-1.375 1.747-1.375 2.922 0 1.618 1.203 2.922 3.609 3.91l3.309 1.354c2.693 1.089 4.662 2.417 5.908 3.985s1.869 3.491 1.869 5.769c0 3.051-1.017 5.572-3.051 7.562-2.048 2.005-4.59 3.008-7.627 3.008-2.879 0-5.257-.852-7.133-2.557-1.848-1.704-3.001-4.104-3.459-7.197l5.07-1.117c.229 1.948.63 3.294 1.203 4.039 1.031 1.432 2.535 2.148 4.512 2.148 1.561 0 2.857-.523 3.889-1.568s1.547-2.37 1.547-3.975c0-.645-.09-1.235-.269-1.772s-.458-1.031-.838-1.482-.87-.874-1.472-1.268-1.318-.77-2.148-1.128l-3.201-1.332C52.27 48.5 50 45.693 50 41.998c0-2.492.952-4.576 2.857-6.252 1.905-1.69 4.275-2.535 7.111-2.535 3.824 0 6.811 1.862 8.959 5.586h0z"/>
</svg>
